<?xml version="1.0" standalone="no"?>
<!DOCTYPE svg PUBLIC "-//W3C//DTD SVG 20010904//EN"
 "http://www.w3.org/TR/2001/REC-SVG-20010904/DTD/svg10.dtd">
<svg version="1.0" xmlns="http://www.w3.org/2000/svg"
 width="1024.000000pt" height="580.000000pt" viewBox="0 0 1024.000000 580.000000"
 preserveAspectRatio="xMidYMid meet">

<g transform="translate(0.000000,580.000000) scale(0.100000,-0.100000)"
fill="#000000" stroke="none">
<path d="M660 3644 c-106 -28 -153 -61 -213 -148 l-42 -61 0 -635 c0 -576 2
-643 18 -720 48 -222 189 -367 417 -427 80 -21 278 -23 365 -4 141 31 293 130
370 240 l27 41 52 -47 c195 -177 465 -264 777 -250 259 11 465 100 635 274
173 176 293 414 409 808 21 72 41 134 45 138 4 5 20 -7 35 -27 38 -50 134
-126 330 -261 218 -150 267 -192 299 -257 72 -143 -6 -324 -158 -371 -72 -22
-239 -13 -336 17 -193 60 -206 62 -251 46 -81 -29 -112 -121 -68 -200 56 -100
329 -179 578 -167 314 14 530 177 586 443 19 88 19 143 0 241 -35 183 -120
282 -428 495 -376 262 -495 378 -549 539 -17 51 -19 68 -10 112 6 29 9 53 8
55 -8 7 -65 -62 -116 -139 -92 -139 -148 -285 -267 -689 -32 -107 -106 -287
-152 -365 -90 -155 -200 -265 -326 -325 -107 -51 -175 -65 -325 -64 -112 1
-134 4 -212 31 -117 40 -187 84 -264 165 -120 127 -184 306 -184 512 0 243 61
405 207 554 56 57 89 81 156 112 46 22 107 45 136 52 92 21 46 19 -65 -3 -147
-29 -239 -61 -367 -127 -182 -94 -300 -210 -380 -372 -41 -82 -42 -88 -45
-199 -5 -138 9 -238 49 -366 l30 -96 -24 -42 c-115 -196 -322 -266 -499 -170
-60 33 -91 71 -121 149 -22 58 -22 68 -25 640 l-3 582 253 4 c215 3 258 6 285
21 97 52 97 200 0 246 -38 17 -70 20 -317 23 -194 3 -288 1 -320 -8z"/>
<path d="M2517 3653 c-2 -2 -19 -4 -38 -6 -26 -2 -35 -7 -37 -23 -2 -12 4 -28
12 -37 19 -19 20 -39 4 -55 -9 -9 -9 -12 0 -12 15 0 16 -51 1 -83 -6 -13 -22
-30 -36 -39 l-25 -15 33 -1 c23 -1 29 2 19 8 -10 6 -6 8 15 6 17 -2 29 -8 28
-13 -3 -14 298 -113 345 -113 68 0 110 23 132 72 50 110 -3 192 -164 253 -35
13 -66 21 -70 18 -3 -3 -11 -1 -19 5 -22 19 -188 48 -200 35z"/>
<path d="M5100 3562 c0 -59 3 -69 18 -69 9 1 41 0 70 -1 l52 -2 0 -175 0 -175
99 0 99 0 -3 54 c-1 29 -6 59 -10 66 -5 8 -4 11 2 7 6 -4 10 35 12 105 1 62 3
113 4 115 2 1 33 3 70 4 l67 2 0 68 0 69 -240 0 -240 0 0 -68z"/>
<path d="M5670 3493 c-29 -76 -72 -186 -96 -245 l-42 -108 98 0 98 0 7 31 c14
61 94 264 99 249 3 -8 16 -46 29 -85 13 -38 34 -98 47 -132 l22 -63 95 0 c87
0 94 2 88 18 -5 9 -47 118 -94 242 l-87 225 -105 3 -106 3 -53 -138z"/>
<path d="M6080 3559 l0 -70 68 2 67 3 3 -177 2 -177 95 0 94 0 3 169 c2 93 5
172 8 175 3 2 33 6 68 7 l62 2 0 46 c0 25 3 56 6 69 l6 22 -241 0 -241 0 0
-71z"/>
<path d="M6689 3603 c-6 -15 -23 -62 -39 -103 -15 -41 -53 -139 -83 -217 l-55
-143 97 0 97 0 45 138 c24 75 48 139 53 142 5 3 29 -58 55 -135 l46 -140 98
-3 c91 -3 97 -2 87 15 -5 10 -25 61 -44 113 -19 52 -57 154 -84 225 l-49 130
-107 3 -106 3 -11 -28z"/>
<path d="M4300 3590 c0 -5 5 -10 10 -10 6 0 10 5 10 10 0 6 -4 10 -10 10 -5 0
-10 -4 -10 -10z"/>
<path d="M4332 3578 c-15 -15 -16 -32 -1 -22 8 5 10 -3 6 -27 -5 -30 -10 -125
-8 -156 1 -6 17 -21 37 -32 31 -18 38 -19 55 -8 10 8 16 16 13 19 -3 4 3 9 14
12 23 8 43 70 35 111 -8 44 -32 64 -65 54 -20 -5 -31 -2 -46 14 -11 12 -21 28
-23 35 -3 10 -7 10 -17 0z"/>
<path d="M4397 3564 c-8 -8 1 -24 14 -24 5 0 9 7 9 15 0 15 -12 20 -23 9z"/>
<path d="M5260 2875 c-116 -37 -183 -177 -150 -315 14 -57 62 -120 111 -145
45 -24 120 -36 176 -29 65 8 83 21 77 54 -5 24 -7 25 -94 25 -74 0 -93 3 -117
21 -48 36 -68 81 -68 154 1 75 19 117 66 151 37 26 122 37 167 21 27 -9 31 -8
41 14 6 14 11 31 11 38 0 28 -143 35 -220 11z"/>
<path d="M5667 2880 c-44 -13 -95 -57 -120 -103 -19 -35 -22 -58 -22 -142 0
-86 3 -106 23 -140 77 -133 266 -149 370 -31 39 44 55 101 55 189 0 143 -90
238 -222 236 -31 0 -69 -5 -84 -9z m129 -69 c80 -37 113 -169 67 -273 -48
-108 -173 -115 -230 -13 -17 31 -23 56 -23 109 0 94 27 151 84 177 23 10 46
19 51 19 6 0 28 -9 51 -19z"/>
<path d="M6060 2641 l0 -251 40 0 41 0 -3 195 c-2 107 -1 195 2 195 3 0 12
-17 21 -39 9 -21 58 -108 109 -194 l93 -157 43 0 44 0 0 248 0 248 -27 -2
c-16 -1 -34 -2 -41 -3 -11 -1 -13 -36 -10 -186 1 -102 2 -185 2 -185 -1 0 -18
33 -37 73 -19 39 -66 124 -104 187 l-70 115 -51 3 -52 3 0 -250z"/>
<path d="M6623 2871 c-48 -22 -73 -63 -73 -116 0 -65 23 -91 120 -140 96 -48
114 -72 92 -120 -19 -40 -85 -47 -184 -20 -25 6 -28 5 -29 -19 -1 -14 -2 -32
-3 -38 -1 -18 101 -39 154 -32 57 8 115 37 137 70 24 37 23 115 -2 151 -12 16
-54 44 -98 66 -42 20 -84 49 -93 63 -16 24 -16 27 3 52 18 23 27 27 74 27 30
0 63 -4 75 -8 17 -6 22 -2 31 28 14 45 9 48 -86 52 -60 3 -85 0 -118 -16z"/>
<path d="M7728 2883 c-46 -4 -48 -5 -48 -34 0 -18 4 -28 10 -24 6 3 10 1 10
-4 0 -7 24 -11 60 -11 l60 0 1 -192 c1 -106 2 -200 3 -208 1 -10 15 -16 44
-18 l42 -3 0 210 0 211 75 0 75 0 0 35 c0 34 -1 35 -42 36 -24 0 -88 2 -143 3
-55 1 -121 1 -147 -1z"/>
<path d="M8185 2878 c-3 -7 -27 -85 -55 -173 -28 -88 -62 -192 -76 -232 -13
-39 -24 -74 -24 -77 0 -3 19 -6 43 -6 l42 0 20 68 20 67 79 5 c45 3 81 1 84
-5 4 -5 16 -37 28 -70 l21 -60 48 -3 c36 -2 46 0 43 10 -3 7 -38 112 -78 233
-40 121 -76 228 -82 238 -11 21 -106 25 -113 5z m65 -75 c0 -10 12 -56 25
-102 14 -47 25 -89 25 -93 0 -4 -29 -8 -64 -8 l-63 0 24 73 c13 39 26 89 29
110 7 37 24 52 24 20z"/>
<path d="M8535 2882 c-3 -3 -5 -115 -5 -249 l0 -243 40 0 40 0 0 198 0 197 49
-90 c26 -49 73 -130 103 -180 30 -49 57 -98 61 -107 5 -14 18 -18 50 -18 l44
0 6 139 c3 76 3 186 0 245 l-6 106 -40 0 -40 0 5 -187 5 -186 -38 79 c-21 43
-69 129 -106 189 l-68 110 -47 1 c-26 1 -50 -1 -53 -4z"/>
<path d="M9162 2874 c-48 -18 -103 -67 -129 -117 -9 -18 -18 -65 -21 -109 -4
-69 -2 -84 22 -132 48 -97 162 -149 281 -127 71 13 73 14 68 48 l-5 28 -88 0
c-74 0 -93 3 -116 21 -57 42 -69 69 -69 154 0 64 4 84 21 106 41 56 70 69 147
69 40 0 78 -2 86 -5 9 -3 17 6 23 29 5 18 7 36 3 39 -14 14 -181 11 -223 -4z"/>
<path d="M9468 2881 l-36 -6 75 -140 76 -140 1 -100 1 -100 40 0 40 0 5 110 5
110 78 134 c42 73 77 134 77 135 0 1 -21 1 -47 0 -46 -2 -47 -2 -77 -60 -16
-33 -40 -83 -52 -113 l-22 -54 -55 117 c-31 64 -59 115 -64 115 -4 -1 -25 -5
-45 -8z"/>
<path d="M6946 2707 c1 -195 9 -232 59 -276 94 -83 234 -59 295 49 24 43 25
55 28 223 l4 177 -46 0 -46 0 0 -174 c0 -164 -1 -175 -23 -207 -47 -70 -147
-57 -174 21 -7 21 -12 99 -12 198 l-1 162 -42 0 -43 0 1 -173z"/>
<path d="M7440 2635 l0 -245 145 0 145 0 0 35 0 35 -82 1 c-46 1 -92 2 -103 3
-19 1 -20 8 -20 209 l0 207 -42 0 -43 0 0 -245z"/>
<path d="M5225 2141 c-74 -18 -115 -67 -115 -138 0 -56 33 -94 118 -133 37
-18 75 -39 85 -48 26 -23 22 -67 -10 -92 -24 -19 -36 -21 -86 -16 -32 3 -66
10 -77 16 -15 8 -20 5 -29 -22 -6 -17 -11 -33 -11 -35 0 -13 79 -33 132 -33
107 0 176 50 185 134 7 70 -20 104 -123 156 -56 28 -90 52 -92 63 -12 63 40
96 119 78 24 -6 47 -11 51 -11 5 0 28 54 28 66 0 5 -101 24 -123 23 -12 -1
-35 -4 -52 -8z"/>
<path d="M7117 2140 c-56 -15 -90 -34 -129 -78 -44 -49 -61 -99 -61 -179 0
-122 80 -222 190 -239 46 -7 170 -1 180 9 2 3 2 19 -1 35 l-7 28 -84 0 c-91
-1 -116 10 -159 68 -32 42 -34 158 -4 210 13 22 38 49 56 59 35 20 116 27 164
14 25 -7 28 -4 34 28 3 20 5 38 3 40 -10 9 -148 13 -182 5z"/>
<path d="M7870 2141 c-63 -20 -88 -41 -105 -85 -33 -85 -5 -132 112 -188 96
-47 113 -70 88 -117 -23 -45 -72 -53 -158 -27 -43 13 -46 13 -51 -8 -16 -58
14 -76 124 -76 111 1 180 59 180 152 0 61 -30 96 -112 133 -75 33 -108 61
-108 90 0 47 55 71 125 55 52 -12 60 -8 70 31 5 20 2 28 -11 33 -29 11 -128
16 -154 7z"/>
<path d="M5510 1895 l0 -245 148 0 148 0 -4 35 -4 35 -105 0 -104 0 3 73 3 72
93 3 92 3 0 34 0 35 -95 0 -96 0 3 63 3 62 98 3 97 3 0 34 0 35 -140 0 -140 0
0 -245z"/>
<path d="M5908 2133 c-16 -4 -18 -27 -20 -244 l-3 -239 43 0 42 0 0 101 0 102
46 -6 c61 -6 79 -27 103 -116 11 -41 22 -75 23 -76 2 -1 22 -5 46 -8 36 -4 42
-3 38 11 -36 133 -52 176 -75 198 -24 25 -25 26 -6 36 45 26 65 60 65 110 0
69 -26 103 -92 123 -48 14 -170 19 -210 8z m199 -85 c29 -27 30 -69 1 -103
-18 -20 -35 -27 -80 -32 l-58 -6 0 82 0 81 57 0 c44 0 62 -5 80 -22z"/>
<path d="M6294 2043 c18 -54 54 -164 81 -245 l48 -148 51 0 52 0 31 93 c17 50
54 159 82 240 28 81 51 150 51 152 0 3 -20 5 -45 5 -42 0 -44 -2 -54 -36 -5
-19 -34 -111 -63 -203 l-52 -168 -18 71 c-10 39 -37 130 -60 203 l-41 133 -48
0 -48 0 33 -97z"/>
<path d="M6759 2133 c-1 -5 -3 -114 -5 -245 l-3 -236 45 -4 44 -3 0 247 0 248
-40 0 c-22 0 -41 -3 -41 -7z"/>
<path d="M7385 1895 l0 -245 148 0 147 0 0 35 0 35 -105 0 -106 0 3 73 3 72
93 3 92 3 0 34 0 35 -95 0 -95 0 0 65 0 65 100 0 100 0 0 35 0 35 -142 0 -143
0 0 -245z"/>
</g>
</svg>
