<svg xmlns="http://www.w3.org/2000/svg" viewBox="0 0 1000 1150">
  <!-- Background -->
  <rect width="1000" height="1150" fill="#f8f9fa" rx="10" ry="10"/>
  
  <!-- Title -->
  <text x="500" y="40" font-family="Arial" font-size="24" text-anchor="middle" fill="#333" font-weight="bold">AI-Powered Interview Preparation System (AIPS) - Enhanced User Journey</text>
  
  <!-- Phase Containers -->
  <!-- Phase 1 -->
  <rect x="50" y="80" width="900" height="140" fill="#e3f2fd" rx="8" ry="8" stroke="#2196f3" stroke-width="2"/>
  <text x="75" y="105" font-family="Arial" font-size="18" fill="#1565c0" font-weight="bold">Phase 1: Foundation</text>
  
  <!-- Phase 2 -->
  <rect x="50" y="240" width="900" height="140" fill="#e8f5e9" rx="8" ry="8" stroke="#4caf50" stroke-width="2"/>
  <text x="75" y="265" font-family="Arial" font-size="18" fill="#2e7d32" font-weight="bold">Phase 2: Resume Analysis</text>
  
  <!-- Phase 2.5: Target Selection -->
  <rect x="50" y="400" width="900" height="140" fill="#e8eaf6" rx="8" ry="8" stroke="#3f51b5" stroke-width="2"/>
  <text x="75" y="425" font-family="Arial" font-size="18" fill="#303f9f" font-weight="bold">Phase 3: Target Selection</text>
  
  <!-- Phase 3 -->
  <rect x="50" y="560" width="900" height="140" fill="#fff3e0" rx="8" ry="8" stroke="#ff9800" stroke-width="2"/>
  <text x="75" y="585" font-family="Arial" font-size="18" fill="#e65100" font-weight="bold">Phase 4: Technical Assessment</text>
  
  <!-- Phase 4 -->
  <rect x="50" y="720" width="900" height="140" fill="#f3e5f5" rx="8" ry="8" stroke="#9c27b0" stroke-width="2"/>
  <text x="75" y="745" font-family="Arial" font-size="18" fill="#6a1b9a" font-weight="bold">Phase 5: Virtual Interview</text>
  
  <!-- Phase 5 -->
  <rect x="50" y="880" width="900" height="250" fill="#e0f7fa" rx="8" ry="8" stroke="#00bcd4" stroke-width="2"/>
  <text x="75" y="905" font-family="Arial" font-size="18" fill="#006064" font-weight="bold">Phase 6: Analytics &amp; Progress</text>
  
  <!-- Phase 1 Flow -->
  <!-- Start -->
  <circle cx="110" cy="150" r="20" fill="#2196f3"/>
  <text x="110" y="155" font-family="Arial" font-size="14" text-anchor="middle" fill="white">Start</text>
  
  <!-- Register/Login -->
  <rect x="180" y="130" width="100" height="40" rx="20" ry="20" fill="#bbdefb" stroke="#2196f3" stroke-width="2"/>
  <text x="230" y="155" font-family="Arial" font-size="14" text-anchor="middle" fill="#333">Register/Login</text>
  
  <!-- User Profile -->
  <rect x="330" y="130" width="100" height="40" rx="20" ry="20" fill="#bbdefb" stroke="#2196f3" stroke-width="2"/>
  <text x="380" y="155" font-family="Arial" font-size="14" text-anchor="middle" fill="#333">User Profile</text>
  
  <!-- Dashboard -->
  <rect x="480" y="130" width="100" height="40" rx="20" ry="20" fill="#bbdefb" stroke="#2196f3" stroke-width="2"/>
  <text x="530" y="155" font-family="Arial" font-size="14" text-anchor="middle" fill="#333">Dashboard</text>
  
  <!-- Phase 1 Arrows -->
  <line x1="130" y1="150" x2="170" y2="150" stroke="#2196f3" stroke-width="2"/>
  <polygon points="170,150 160,145 160,155" fill="#2196f3"/>
  
  <line x1="280" y1="150" x2="320" y2="150" stroke="#2196f3" stroke-width="2"/>
  <polygon points="320,150 310,145 310,155" fill="#2196f3"/>
  
  <line x1="430" y1="150" x2="470" y2="150" stroke="#2196f3" stroke-width="2"/>
  <polygon points="470,150 460,145 460,155" fill="#2196f3"/>
  
  <!-- Module Selection from Dashboard -->
  <line x1="530" y1="170" x2="530" y2="200" stroke="#2196f3" stroke-width="2"/>
  <polygon points="530,200 525,190 535,190" fill="#2196f3"/>
  
  <text x="530" y="215" font-family="Arial" font-size="14" text-anchor="middle" fill="#333" font-style="italic">Select Module</text>
  
  <!-- Phase 2 Flow -->
  <rect x="150" y="310" width="100" height="40" rx="20" ry="20" fill="#c8e6c9" stroke="#4caf50" stroke-width="2"/>
  <text x="200" y="335" font-family="Arial" font-size="14" text-anchor="middle" fill="#333">Upload Resume</text>
  
  <rect x="300" y="310" width="100" height="40" rx="20" ry="20" fill="#c8e6c9" stroke="#4caf50" stroke-width="2"/>
  <text x="350" y="335" font-family="Arial" font-size="14" text-anchor="middle" fill="#333">Parse Resume</text>
  
  <rect x="450" y="310" width="100" height="40" rx="20" ry="20" fill="#c8e6c9" stroke="#4caf50" stroke-width="2"/>
  <text x="500" y="335" font-family="Arial" font-size="14" text-anchor="middle" fill="#333">Analyze Content</text>
  
  <rect x="600" y="310" width="100" height="40" rx="20" ry="20" fill="#c8e6c9" stroke="#4caf50" stroke-width="2"/>
  <text x="650" y="335" font-family="Arial" font-size="14" text-anchor="middle" fill="#333">Get Feedback</text>
  
  <rect x="750" y="310" width="100" height="40" rx="20" ry="20" fill="#c8e6c9" stroke="#4caf50" stroke-width="2"/>
  <text x="800" y="335" font-family="Arial" font-size="14" text-anchor="middle" fill="#333">Improve Resume</text>
  
  <!-- Phase 2 Arrows -->
  <line x1="250" y1="330" x2="290" y2="330" stroke="#4caf50" stroke-width="2"/>
  <polygon points="290,330 280,325 280,335" fill="#4caf50"/>
  
  <line x1="400" y1="330" x2="440" y2="330" stroke="#4caf50" stroke-width="2"/>
  <polygon points="440,330 430,325 430,335" fill="#4caf50"/>
  
  <line x1="550" y1="330" x2="590" y2="330" stroke="#4caf50" stroke-width="2"/>
  <polygon points="590,330 580,325 580,335" fill="#4caf50"/>
  
  <line x1="700" y1="330" x2="740" y2="330" stroke="#4caf50" stroke-width="2"/>
  <polygon points="740,330 730,325 730,335" fill="#4caf50"/>
  
  <!-- Go to Target Selection -->
  <path d="M800,350 C800,365 700,380 530,380 C360,380 200,365 200,350" stroke="#4caf50" stroke-width="2" fill="none"/>
  <line x1="200" y1="350" x2="200" y2="380" stroke="#4caf50" stroke-width="2"/>
  <polygon points="200,380 195,370 205,370" fill="#4caf50"/>
  <text x="500" y="395" font-family="Arial" font-size="12" text-anchor="middle" fill="#333" font-style="italic">Proceed to Target Selection</text>
  
  <!-- Phase 3 (Target Selection) Flow -->
  <rect x="150" y="470" width="100" height="40" rx="20" ry="20" fill="#c5cae9" stroke="#3f51b5" stroke-width="2"/>
  <text x="200" y="495" font-family="Arial" font-size="14" text-anchor="middle" fill="#333">Select Company</text>
  
  <rect x="300" y="470" width="100" height="40" rx="20" ry="20" fill="#c5cae9" stroke="#3f51b5" stroke-width="2"/>
  <text x="350" y="495" font-family="Arial" font-size="14" text-anchor="middle" fill="#333">Select Role</text>
  
  <rect x="450" y="470" width="150" height="40" rx="20" ry="20" fill="#c5cae9" stroke="#3f51b5" stroke-width="2"/>
  <text x="525" y="495" font-family="Arial" font-size="14" text-anchor="middle" fill="#333">Choose Interview Type</text>
  
  <rect x="650" y="440" width="130" height="35" rx="17" ry="17" fill="#c5cae9" stroke="#3f51b5" stroke-width="2"/>
  <text x="715" y="462" font-family="Arial" font-size="12" text-anchor="middle" fill="#333">Technical Interview</text>
  
  <rect x="650" y="485" width="130" height="35" rx="17" ry="17" fill="#c5cae9" stroke="#3f51b5" stroke-width="2"/>
  <text x="715" y="507" font-family="Arial" font-size="12" text-anchor="middle" fill="#333">HR Interview</text>
  
  <!-- Phase 3 Arrows -->
  <line x1="250" y1="490" x2="290" y2="490" stroke="#3f51b5" stroke-width="2"/>
  <polygon points="290,490 280,485 280,495" fill="#3f51b5"/>
  
  <line x1="400" y1="490" x2="440" y2="490" stroke="#3f51b5" stroke-width="2"/>
  <polygon points="440,490 430,485 430,495" fill="#3f51b5"/>
  
  <line x1="600" y1="490" x2="640" y2="490" stroke="#3f51b5" stroke-width="2"/>
  <polygon points="640,490 630,485 630,495" fill="#3f51b5"/>
  
  <!-- Technical Flow -->
  <line x1="780" y1="458" x2="820" y2="458" stroke="#3f51b5" stroke-width="2"/>
  <line x1="820" y1="458" x2="820" y2="540" stroke="#3f51b5" stroke-width="2"/>
  <polygon points="820,540 815,530 825,530" fill="#3f51b5"/>
  <text x="850" y="480" font-family="Arial" font-size="12" text-anchor="middle" fill="#333" font-style="italic">To Technical</text>
  <text x="850" y="495" font-family="Arial" font-size="12" text-anchor="middle" fill="#333" font-style="italic">Assessment</text>
  
  <!-- HR Flow -->
  <line x1="780" y1="502" x2="840" y2="502" stroke="#3f51b5" stroke-width="2"/>
  <line x1="840" y1="502" x2="840" y2="700" stroke="#3f51b5" stroke-width="2"/>
  <polygon points="840,700 835,690 845,690" fill="#3f51b5"/>
  <text x="880" y="590" font-family="Arial" font-size="12" text-anchor="middle" fill="#333" font-style="italic">Skip to</text>
  <text x="880" y="605" font-family="Arial" font-size="12" text-anchor="middle" fill="#333" font-style="italic">Virtual</text>
  <text x="880" y="620" font-family="Arial" font-size="12" text-anchor="middle" fill="#333" font-style="italic">Interview</text>
  
  <!-- Phase 4 (Technical Assessment) Flow -->
  <rect x="150" y="630" width="100" height="40" rx="20" ry="20" fill="#ffe0b2" stroke="#ff9800" stroke-width="2"/>
  <text x="200" y="655" font-family="Arial" font-size="14" text-anchor="middle" fill="#333">Select Problem</text>
  
  <rect x="300" y="630" width="100" height="40" rx="20" ry="20" fill="#ffe0b2" stroke="#ff9800" stroke-width="2"/>
  <text x="350" y="655" font-family="Arial" font-size="14" text-anchor="middle" fill="#333">Code Solution</text>
  
  <rect x="450" y="630" width="100" height="40" rx="20" ry="20" fill="#ffe0b2" stroke="#ff9800" stroke-width="2"/>
  <text x="500" y="655" font-family="Arial" font-size="14" text-anchor="middle" fill="#333">Test Code</text>
  
  <rect x="600" y="630" width="100" height="40" rx="20" ry="20" fill="#ffe0b2" stroke="#ff9800" stroke-width="2"/>
  <text x="650" y="655" font-family="Arial" font-size="14" text-anchor="middle" fill="#333">Submit Solution</text>
  
  <rect x="750" y="630" width="100" height="40" rx="20" ry="20" fill="#ffe0b2" stroke="#ff9800" stroke-width="2"/>
  <text x="800" y="655" font-family="Arial" font-size="14" text-anchor="middle" fill="#333">Get Feedback</text>
  
  <!-- Phase 4 Arrows -->
  <line x1="250" y1="650" x2="290" y2="650" stroke="#ff9800" stroke-width="2"/>
  <polygon points="290,650 280,645 280,655" fill="#ff9800"/>
  
  <line x1="400" y1="650" x2="440" y2="650" stroke="#ff9800" stroke-width="2"/>
  <polygon points="440,650 430,645 430,655" fill="#ff9800"/>
  
  <line x1="550" y1="650" x2="590" y2="650" stroke="#ff9800" stroke-width="2"/>
  <polygon points="590,650 580,645 580,655" fill="#ff9800"/>
  
  <line x1="700" y1="650" x2="740" y2="650" stroke="#ff9800" stroke-width="2"/>
  <polygon points="740,650 730,645 730,655" fill="#ff9800"/>
  
  <!-- Go to Virtual Interview -->
  <path d="M800,670 C800,685 700,700 530,700 C360,700 260,700 200,700" stroke="#ff9800" stroke-width="2" fill="none"/>
  <line x1="200" y1="700" x2="200" y2="720" stroke="#ff9800" stroke-width="2"/>
  <polygon points="200,720 195,710 205,710" fill="#ff9800"/>
  <text x="500" y="715" font-family="Arial" font-size="12" text-anchor="middle" fill="#333" font-style="italic">Proceed to Virtual Interview</text>
  
  <!-- Phase 5 (Virtual Interview) Flow -->
  <rect x="80" y="790" width="110" height="40" rx="20" ry="20" fill="#e1bee7" stroke="#9c27b0" stroke-width="2"/>
  <text x="135" y="815" font-family="Arial" font-size="14" text-anchor="middle" fill="#333">Select Interview Type</text>
  
  <rect x="170" y="750" width="100" height="35" rx="17" ry="17" fill="#e1bee7" stroke="#9c27b0" stroke-width="2"/>
  <text x="220" y="772" font-family="Arial" font-size="12" text-anchor="middle" fill="#333">Technical Deep Dive</text>
  
  <rect x="170" y="795" width="100" height="35" rx="17" ry="17" fill="#e1bee7" stroke="#9c27b0" stroke-width="2"/>
  <text x="220" y="817" font-family="Arial" font-size="12" text-anchor="middle" fill="#333">System Design</text>
  
  <rect x="170" y="840" width="100" height="35" rx="17" ry="17" fill="#e1bee7" stroke="#9c27b0" stroke-width="2"/>
  <text x="220" y="862" font-family="Arial" font-size="12" text-anchor="middle" fill="#333">HR Round</text>
  
  <rect x="330" y="790" width="100" height="40" rx="20" ry="20" fill="#e1bee7" stroke="#9c27b0" stroke-width="2"/>
  <text x="380" y="815" font-family="Arial" font-size="14" text-anchor="middle" fill="#333">Setup Camera</text>
  
  <rect x="480" y="790" width="100" height="40" rx="20" ry="20" fill="#e1bee7" stroke="#9c27b0" stroke-width="2"/>
  <text x="530" y="815" font-family="Arial" font-size="14" text-anchor="middle" fill="#333">Answer Questions</text>
  
  <rect x="630" y="790" width="100" height="40" rx="20" ry="20" fill="#e1bee7" stroke="#9c27b0" stroke-width="2"/>
  <text x="680" y="815" font-family="Arial" font-size="14" text-anchor="middle" fill="#333">AI Analysis</text>
  
  <rect x="780" y="790" width="100" height="40" rx="20" ry="20" fill="#e1bee7" stroke="#9c27b0" stroke-width="2"/>
  <text x="830" y="815" font-family="Arial" font-size="14" text-anchor="middle" fill="#333">Get Feedback</text>
  
  <!-- Phase 5 Arrows -->
  <line x1="190" y1="790" x2="220" y2="790" stroke="#9c27b0" stroke-width="2"/>
  <polygon points="220,790 210,785 210,795" fill="#9c27b0"/>
  
  <line x1="270" y1="772" x2="330" y2="790" stroke="#9c27b0" stroke-width="2"/>
  <polygon points="330,790 320,782 322,792" fill="#9c27b0"/>
  
  <line x1="270" y1="817" x2="330" y2="810" stroke="#9c27b0" stroke-width="2"/>
  <polygon points="330,810 320,805 322,815" fill="#9c27b0"/>
  
  <line x1="270" y1="850" x2="330" y2="820" stroke="#9c27b0" stroke-width="2"/>
  <polygon points="330,820 320,814 324,824" fill="#9c27b0"/>
  
  <line x1="430" y1="810" x2="470" y2="810" stroke="#9c27b0" stroke-width="2"/>
  <polygon points="470,810 460,805 460,815" fill="#9c27b0"/>
  
  <line x1="580" y1="810" x2="620" y2="810" stroke="#9c27b0" stroke-width="2"/>
  <polygon points="620,810 610,805 610,815" fill="#9c27b0"/>
  
  <line x1="730" y1="810" x2="770" y2="810" stroke="#9c27b0" stroke-width="2"/>
  <polygon points="770,810 760,805 760,815" fill="#9c27b0"/>
  
  <!-- Go to Analytics -->
  <line x1="830" y1="830" x2="830" y2="870" stroke="#9c27b0" stroke-width="2"/>
  <polygon points="830,870 825,860 835,860" fill="#9c27b0"/>
  <text x="880" y="850" font-family="Arial" font-size="12" text-anchor="middle" fill="#333" font-style="italic">Proceed to Analytics</text>
  
  <!-- Phase 6 (Analytics) Flow -->
  <rect x="120" y="940" width="120" height="40" rx="20" ry="20" fill="#b2ebf2" stroke="#00bcd4" stroke-width="2"/>
  <text x="180" y="965" font-family="Arial" font-size="14" text-anchor="middle" fill="#333">View Progress</text>
  
  <rect x="280" y="940" width="120" height="40" rx="20" ry="20" fill="#b2ebf2" stroke="#00bcd4" stroke-width="2"/>
  <text x="340" y="965" font-family="Arial" font-size="14" text-anchor="middle" fill="#333">Identify Gaps</text>
  
  <rect x="440" y="940" width="150" height="40" rx="20" ry="20" fill="#b2ebf2" stroke="#00bcd4" stroke-width="2"/>
  <text x="515" y="965" font-family="Arial" font-size="14" text-anchor="middle" fill="#333">Get Recommendations</text>
  
  <rect x="630" y="940" width="130" height="40" rx="20" ry="20" fill="#b2ebf2" stroke="#00bcd4" stroke-width="2"/>
  <text x="695" y="965" font-family="Arial" font-size="14" text-anchor="middle" fill="#333">Practice More</text>
  
  <rect x="800" y="940" width="100" height="40" rx="20" ry="20" fill="#b2ebf2" stroke="#00bcd4" stroke-width="2"/>
  <text x="850" y="965" font-family="Arial" font-size="14" text-anchor="middle" fill="#333">Track Progress</text>
  
  <!-- Advanced Analytics -->
  <rect x="300" y="1020" width="400" height="80" rx="8" ry="8" fill="#b2ebf2" stroke="#00bcd4" stroke-width="2"/>
  <text x="500" y="1045" font-family="Arial" font-size="16" text-anchor="middle" fill="#333" font-weight="bold">Advanced Analytics</text>
  <text x="500" y="1075" font-family="Arial" font-size="14" text-anchor="middle" fill="#333">Company-specific Performance Metrics</text>
  <text x="500" y="1095" font-family="Arial" font-size="14" text-anchor="middle" fill="#333">Industry Benchmark Comparison</text>
  
  <!-- Phase 6 Arrows -->
  <line x1="240" y1="960" x2="270" y2="960" stroke="#00bcd4" stroke-width="2"/>
  <polygon points="270,960 260,955 260,965" fill="#00bcd4"/>
  
  <line x1="400" y1="960" x2="430" y2="960" stroke="#00bcd4" stroke-width="2"/>
  <polygon points="430,960 420,955 420,965" fill="#00bcd4"/>
  
  <line x1="590" y1="960" x2="620" y2="960" stroke="#00bcd4" stroke-width="2"/>
  <polygon points="620,960 610,955 610,965" fill="#00bcd4"/>
  
  <line x1="760" y1="960" x2="790" y2="960" stroke="#00bcd4" stroke-width="2"/>
  <polygon points="790,960 780,955 780,965" fill="#00bcd4"/>
  
  <!-- Dashboard Integration -->
  <path d="M500,1020 C500,1000 500,990 500,980" stroke="#00bcd4" stroke-width="2" fill="none"/>
  <polygon points="500,980 495,990 505,990" fill="#00bcd4"/>
  <text x="550" y="1000" font-family="Arial" font-size="12" text-anchor="middle" fill="#333" font-style="italic">Detailed Analysis</text>
  
  <!-- Return to Dashboard -->
  <path d="M120,990 C120,1010 200,1110 650,1110 C850,1110 900,1020 900,960" stroke="#00bcd4" stroke-width="2" fill="none" stroke-dasharray="5,5"/>
  <polygon points="900,960 895,970 905,970" fill="#00bcd4"/>
  <text x="500" y="1130" font-family="Arial" font-size="14" text-anchor="middle" fill="#333" font-style="italic">Return to Dashboard for Next Practice Session</text>
  
  <!-- Build Priority Numbers -->
  <circle cx="90" y="150" r="16" fill="#1565c0" stroke="white" stroke-width="2"/>
  <text x="90" y="155" font-family="Arial" font-size="14" text-anchor="middle" font-weight="bold" fill="white">1</text>
  
  <circle cx="90" y="330" r="16" fill="#2e7d32" stroke="white" stroke-width="2"/>
  <text x="90" y="335" font-family="Arial" font-size="14" text-anchor="middle" font-weight="bold" fill="white">2</text>
  
  <circle cx="90" y="490" r="16" fill="#303f9f" stroke="white" stroke-width="2"/>
  <text x="90" y="495" font-family="Arial" font-size="14" text-anchor="middle" font-weight="bold" fill="white">3</text>
  
  <circle cx="90" y="650" r="16" fill="#e65100" stroke="white" stroke-width="2"/>
  <text x="90" y="655" font-family="Arial" font-size="14" text-anchor="middle" font-weight="bold" fill="white">4</text>
  
  <circle cx="90" y="810" r="16" fill="#6a1b9a" stroke="white" stroke-width="2"/>
  <text x="90" y="815" font-family="Arial" font-size="14" text-anchor="middle" font-weight="bold" fill="white">5</text>
  
  <circle cx="90" y="960" r="16" fill="#006064" stroke="white" stroke-width="2"/>
  <text x="90" y="965" font-family="Arial" font-size="14" text-anchor="middle" font-weight="bold" fill="white">6</text>
</svg>