<svg xmlns="http://www.w3.org/2000/svg" viewBox="0 0 800 600">
  <!-- Background -->
  <rect width="800" height="600" fill="#f8f9fa" />
  
  <!-- Title -->
  <text x="400" y="40" font-family="Arial" font-size="20" text-anchor="middle" font-weight="bold">AI-Powered Interview Preparation System Architecture</text>
  
  <!-- Frontend Layer -->
  <rect x="50" y="80" width="700" height="100" rx="10" ry="10" fill="#e3f2fd" stroke="#2196f3" stroke-width="2" />
  <text x="400" y="110" font-family="Arial" font-size="16" text-anchor="middle" font-weight="bold">Frontend Layer</text>
  
  <rect x="70" y="130" width="110" height="30" rx="5" ry="5" fill="#bbdefb" stroke="#1e88e5" stroke-width="1" />
  <text x="125" y="150" font-family="Arial" font-size="12" text-anchor="middle">React + Vite</text>
  
  <rect x="190" y="130" width="110" height="30" rx="5" ry="5" fill="#bbdefb" stroke="#1e88e5" stroke-width="1" />
  <text x="245" y="150" font-family="Arial" font-size="12" text-anchor="middle">Tailwind CSS</text>
  
  <rect x="310" y="130" width="110" height="30" rx="5" ry="5" fill="#bbdefb" stroke="#1e88e5" stroke-width="1" />
  <text x="365" y="150" font-family="Arial" font-size="12" text-anchor="middle">Zustand</text>
  
  <rect x="430" y="130" width="110" height="30" rx="5" ry="5" fill="#bbdefb" stroke="#1e88e5" stroke-width="1" />
  <text x="485" y="150" font-family="Arial" font-size="12" text-anchor="middle">Monaco Editor</text>
  
  <rect x="550" y="130" width="180" height="30" rx="5" ry="5" fill="#bbdefb" stroke="#1e88e5" stroke-width="1" />
  <text x="640" y="150" font-family="Arial" font-size="12" text-anchor="middle">D3.js + Recharts</text>
  
  <!-- Backend Layer -->
  <rect x="50" y="190" width="700" height="100" rx="10" ry="10" fill="#e8f5e9" stroke="#4caf50" stroke-width="2" />
  <text x="400" y="220" font-family="Arial" font-size="16" text-anchor="middle" font-weight="bold">Backend Layer</text>
  
  <rect x="70" y="240" width="110" height="30" rx="5" ry="5" fill="#c8e6c9" stroke="#43a047" stroke-width="1" />
  <text x="125" y="260" font-family="Arial" font-size="12" text-anchor="middle">Express.js + TS</text>
  
  <rect x="190" y="240" width="110" height="30" rx="5" ry="5" fill="#c8e6c9" stroke="#43a047" stroke-width="1" />
  <text x="245" y="260" font-family="Arial" font-size="12" text-anchor="middle">JWT Auth</text>
  
  <rect x="310" y="240" width="110" height="30" rx="5" ry="5" fill="#c8e6c9" stroke="#43a047" stroke-width="1" />
  <text x="365" y="260" font-family="Arial" font-size="12" text-anchor="middle">SQLite + Prisma</text>
  
  <rect x="430" y="240" width="110" height="30" rx="5" ry="5" fill="#c8e6c9" stroke="#43a047" stroke-width="1" />
  <text x="485" y="260" font-family="Arial" font-size="12" text-anchor="middle">Node-Cache</text>
  
  <rect x="550" y="240" width="180" height="30" rx="5" ry="5" fill="#c8e6c9" stroke="#43a047" stroke-width="1" />
  <text x="640" y="260" font-family="Arial" font-size="12" text-anchor="middle">Docker Code Execution</text>
  
  <!-- AI Components Layer -->
  <rect x="50" y="300" width="700" height="160" rx="10" ry="10" fill="#fff3e0" stroke="#ff9800" stroke-width="2" />
  <text x="400" y="330" font-family="Arial" font-size="16" text-anchor="middle" font-weight="bold">AI Components Layer</text>
  
  <rect x="70" y="350" width="200" height="30" rx="5" ry="5" fill="#ffe0b2" stroke="#fb8c00" stroke-width="1" />
  <text x="170" y="370" font-family="Arial" font-size="12" text-anchor="middle">NLP (Hugging Face Models)</text>
  
  <rect x="70" y="390" width="200" height="30" rx="5" ry="5" fill="#ffe0b2" stroke="#fb8c00" stroke-width="1" />
  <text x="170" y="410" font-family="Arial" font-size="12" text-anchor="middle">Speech Analysis (Web Speech API)</text>
  
  <rect x="280" y="350" width="220" height="30" rx="5" ry="5" fill="#ffe0b2" stroke="#fb8c00" stroke-width="1" />
  <text x="390" y="370" font-family="Arial" font-size="12" text-anchor="middle">Computer Vision (TensorFlow.js)</text>
  
  <rect x="280" y="390" width="220" height="30" rx="5" ry="5" fill="#ffe0b2" stroke="#fb8c00" stroke-width="1" />
  <text x="390" y="410" font-family="Arial" font-size="12" text-anchor="middle">Resume Parsing (PDF.js + docx-parser)</text>
  
  <rect x="510" y="350" width="220" height="30" rx="5" ry="5" fill="#ffe0b2" stroke="#fb8c00" stroke-width="1" />
  <text x="620" y="370" font-family="Arial" font-size="12" text-anchor="middle">Code Analysis (ESLint/Prettier)</text>
  
  <rect x="510" y="390" width="220" height="30" rx="5" ry="5" fill="#ffe0b2" stroke="#fb8c00" stroke-width="1" />
  <text x="620" y="410" font-family="Arial" font-size="12" text-anchor="middle">Rule-based Recommendation Engine</text>
  
  <!-- Core Modules Layer -->
  <rect x="50" y="470" width="700" height="100" rx="10" ry="10" fill="#f3e5f5" stroke="#9c27b0" stroke-width="2" />
  <text x="400" y="500" font-family="Arial" font-size="16" text-anchor="middle" font-weight="bold">Functional Modules</text>
  
  <rect x="60" y="520" width="100" height="30" rx="5" ry="5" fill="#e1bee7" stroke="#8e24aa" stroke-width="1" />
  <text x="110" y="540" font-family="Arial" font-size="12" text-anchor="middle">User Management</text>
  
  <rect x="170" y="520" width="100" height="30" rx="5" ry="5" fill="#e1bee7" stroke="#8e24aa" stroke-width="1" />
  <text x="220" y="540" font-family="Arial" font-size="12" text-anchor="middle">Resume Analysis</text>
  
  <rect x="280" y="520" width="110" height="30" rx="5" ry="5" fill="#e1bee7" stroke="#8e24aa" stroke-width="1" />
  <text x="335" y="540" font-family="Arial" font-size="12" text-anchor="middle">Virtual Interviews</text>
  
  <rect x="400" y="520" width="130" height="30" rx="5" ry="5" fill="#e1bee7" stroke="#8e24aa" stroke-width="1" />
  <text x="465" y="540" font-family="Arial" font-size="12" text-anchor="middle">Technical Assessment</text>
  
  <rect x="540" y="520" width="100" height="30" rx="5" ry="5" fill="#e1bee7" stroke="#8e24aa" stroke-width="1" />
  <text x="590" y="540" font-family="Arial" font-size="12" text-anchor="middle">Behavioral Analysis</text>
  
  <rect x="650" y="520" width="90" height="30" rx="5" ry="5" fill="#e1bee7" stroke="#8e24aa" stroke-width="1" />
  <text x="695" y="540" font-family="Arial" font-size="12" text-anchor="middle">Analytics</text>
  
  <!-- Connections -->
  <line x1="400" y1="180" x2="400" y2="190" stroke="#2196f3" stroke-width="2" />
  <line x1="400" y1="290" x2="400" y2="300" stroke="#4caf50" stroke-width="2" />
  <line x1="400" y1="460" x2="400" y2="470" stroke="#ff9800" stroke-width="2" />
</svg>
